<svg xmlns="http://www.w3.org/2000/svg" width="159" height="234" viewBox="0 0 159 234" fill="none"> <path fill-rule="evenodd" clip-rule="evenodd" d="M154.175 1.3023C154.767 2.00096 154.605 2.10844 153.262 2.10844C152.348 2.10844 151.22 2.59213 150.682 3.1833C150.145 3.77448 149.339 4.25816 148.855 4.25816C148.371 4.25816 146.974 5.22554 145.738 6.35414C144.502 7.53648 143.373 8.34263 143.212 8.18141C142.782 7.69772 140.686 9.68621 141.062 10.2236C141.223 10.4924 141.008 10.5461 140.578 10.3849C140.149 10.2236 138.751 11.1373 137.354 12.4808C136.01 13.8244 134.506 15.0068 134.076 15.168C133.592 15.383 133.216 15.8667 133.216 16.2966C133.216 16.6728 132.571 17.2102 131.765 17.4252C130.761 17.676 130.672 17.9626 131.496 18.2851C132.893 18.8225 133.054 19.1987 131.818 19.0912C131.335 19.0912 130.797 19.3599 130.69 19.6824C130.367 20.6498 132.571 20.596 133.484 19.6287C134.022 19.145 134.076 18.7688 133.646 18.3388C133.216 17.9089 133.484 17.6402 134.505 17.3715C135.258 17.2102 135.903 16.834 135.903 16.5653C135.903 16.2966 136.44 16.0816 137.139 16.0279C138.268 16.0279 138.268 15.9741 137.246 15.5442C136.655 15.2755 136.44 15.0605 136.763 15.0605C137.085 15.0068 137.999 14.4156 138.805 13.6632C139.826 12.6958 140.632 12.3734 141.385 12.6421C141.976 12.8033 142.352 12.7496 142.191 12.5346C141.761 11.7822 144.287 8.88006 144.985 9.31C145.308 9.52498 145.415 10.0087 145.2 10.3311C144.985 10.7073 145.2 10.6536 145.738 10.2236C146.221 9.84744 146.651 9.68621 146.651 9.90118C146.651 10.5461 142.137 14.4693 141.385 14.4693C141.008 14.4693 140.793 14.6843 141.008 14.953C141.17 15.2217 141.062 15.5979 140.74 15.8129C140.471 15.9741 140.202 15.7592 140.202 15.3292C140.202 14.3618 139.342 14.2006 138.859 15.0068C138.697 15.2755 138.859 15.5442 139.235 15.5442C140.632 15.5442 138.321 17.1027 136.44 17.4252C134.291 17.8014 133.646 18.2313 135.258 18.2313C136.87 18.2313 137.139 19.0375 135.58 19.8436C134.882 20.2736 134.398 20.9185 134.505 21.2947C134.72 21.7784 134.344 21.9933 133.484 21.9933C132.678 21.9933 131.818 22.5308 131.335 23.2832C130.152 25.1105 128.916 25.4867 128.916 24.0356C128.916 23.3907 129.077 23.0682 129.292 23.2294C129.669 23.6594 131.066 22.6383 131.066 21.8859C131.066 21.5634 130.636 21.5097 130.152 21.6709C129.669 21.8859 129.131 21.7784 128.916 21.4559C128.325 20.4885 126.283 22.907 126.552 24.2506C126.695 25.003 126.569 24.9671 126.175 24.1431C125.781 23.319 125.441 23.2474 125.154 23.9281C124.939 24.5193 124.133 25.4329 123.381 25.9166C121.93 26.8302 121.553 29.6249 122.897 29.0874C123.273 28.9799 123.488 28.55 123.327 28.1738C123.166 27.7438 123.918 27.2602 125.208 26.884C127.089 26.2928 127.573 25.8091 127.358 24.5193C127.25 23.7669 128.271 24.1431 128.594 24.9492C128.809 25.5404 129.346 25.7016 130.367 25.4866C131.711 25.1642 131.657 25.2717 129.991 26.0778C128.97 26.6152 127.788 27.4751 127.411 28.0126C127.035 28.55 126.39 28.9799 126.014 28.9799C125.584 28.9799 124.939 29.3561 124.563 29.8936C124.133 30.3773 123.112 31.0759 122.198 31.4521C120.64 32.1508 120.64 32.2045 121.822 32.527C122.467 32.6882 123.004 33.1182 123.004 33.3869C123.004 33.6556 122.682 33.8168 122.36 33.6556C121.983 33.5481 121.231 33.6556 120.747 33.8706C119.726 34.408 118.705 33.0644 119.081 31.6671C119.296 31.0222 119.242 30.9684 118.813 31.6134C118.49 32.0433 117.899 32.2045 117.361 32.0433C116.824 31.8283 116.609 31.8821 116.824 32.2583C117.039 32.5807 116.77 33.1719 116.233 33.5481C115.373 34.193 115.319 34.408 115.964 34.8379C116.502 35.2141 116.287 35.4291 114.997 35.6978C113.277 36.074 112.847 36.7727 114.029 37.2026C114.352 37.3639 114.029 37.5251 113.277 37.5251C111.772 37.5788 110.751 38.9224 111.88 39.4061C112.31 39.5673 112.31 39.6748 111.772 39.6748C110.751 39.7285 107.741 42.4157 108.601 42.4694C108.978 42.5232 109.569 42.4694 109.837 42.4157C110.16 42.3082 110.805 42.3082 111.396 42.3082C111.933 42.362 112.901 42.0395 113.546 41.6095C114.244 41.1796 114.997 41.0184 115.427 41.2871C115.964 41.6096 115.964 41.8245 115.48 42.147C115.158 42.3619 114.782 42.4157 114.621 42.2545C114.459 42.147 113.761 42.5232 113.062 43.1681C112.148 43.9742 111.987 44.4042 112.417 44.7266C112.847 44.9954 112.686 45.1028 111.987 44.9954C111.235 44.8879 110.912 45.1566 110.912 45.8553C110.912 46.4464 110.536 47.0376 110.106 47.1451C109.085 47.5213 108.279 48.3812 107.795 49.5098C107.634 50.0472 106.935 50.4771 106.237 50.4771C105.484 50.4771 105.448 50.2084 106.129 49.671C106.667 49.241 106.935 48.8648 106.613 48.8648C106.344 48.8648 106.398 48.6499 106.774 48.3812C107.15 48.1662 107.58 47.4675 107.634 46.9301C107.741 46.3927 108.171 45.9627 108.548 46.0165C108.978 46.0702 109.837 45.479 110.429 44.6729L111.557 43.2218H109.891C107.741 43.2756 106.828 43.813 107.258 44.9416C107.527 45.5865 107.365 45.7478 106.72 45.479C105.538 45.0491 101.561 48.8111 102.582 49.4023C103.012 49.671 102.69 49.9397 101.507 50.2084C100.379 50.4771 99.9487 50.7459 100.325 51.1221C100.862 51.6595 99.3038 53.7017 98.3365 53.7017C98.014 53.7017 97.9065 54.1854 98.014 54.8303C98.1752 55.6902 98.014 55.8514 97.3153 55.5827C96.8317 55.4215 96.6167 55.4215 96.8316 55.6365C97.4228 56.2276 93.3384 61.4407 92.5322 61.1183C92.3172 61.0108 92.0485 61.387 91.941 61.9782C91.7798 62.6768 91.941 62.838 92.4247 62.5693C92.8547 62.3006 92.9622 62.3543 92.6934 62.7305C92.4785 63.1068 92.5322 63.3755 92.8547 63.3755C93.1234 63.3755 93.5533 63.1067 93.7146 62.838C93.9295 62.5156 94.252 62.4081 94.5207 62.5693C95.1119 62.9455 98.9814 59.2373 98.6052 58.6461C98.4439 58.3774 98.6589 58.1624 99.0889 58.1624C99.5188 58.1624 99.895 58.6461 99.895 59.1835C99.895 59.7747 99.68 60.0971 99.4113 59.8822C99.1426 59.7209 98.3902 60.2584 97.7453 61.0645C97.1004 61.9244 96.4017 62.5693 96.2405 62.6231C96.0255 62.6231 95.1656 62.9455 94.3057 63.3217C93.4996 63.6442 92.4247 63.8592 91.941 63.8054C91.4036 63.6979 90.9737 64.1816 90.7587 64.9877C90.5437 65.9014 90.3288 66.1164 90.0063 65.6327C89.6838 65.0952 89.4151 65.0952 88.8239 65.5789C87.1579 66.9762 89.6301 67.4599 92.5322 66.3313C93.1771 66.0626 93.4458 66.2238 93.4458 66.9225C93.4458 67.6212 93.2846 67.7286 93.0159 67.2987C92.4247 66.3851 91.0811 67.3524 91.4573 68.481C91.6723 68.9647 91.6186 69.2334 91.2961 69.0185C90.9737 68.8572 90.7587 68.3736 90.7587 67.9974C90.7587 67.5674 90.2213 67.4062 89.2539 67.5674C87.5341 67.7824 85.0619 70.9532 85.5994 72.2968C85.8143 72.888 85.5994 73.2642 84.847 73.4254C83.9871 73.6404 83.8796 73.8553 84.3633 74.4465C84.6857 74.8765 85.2232 75.0377 85.5456 74.8227C85.8681 74.6615 85.9218 74.769 85.7069 75.0914C85.4381 75.5751 85.0619 75.5214 84.2558 75.0377C83.3422 74.5003 83.0734 74.6078 81.8911 75.9513C81.1924 76.8112 80.7088 77.6711 80.8162 77.9398C80.9775 78.1548 80.87 78.4772 80.5475 78.6922C80.2251 78.9072 80.1713 79.2834 80.3326 79.6058C80.6013 80.0358 80.3863 80.0895 79.7951 79.8746C78.9352 79.5521 78.8815 79.7133 79.204 81.4869C79.5264 83.4216 79.5264 83.4753 78.7203 82.4542C77.9679 81.4868 77.9141 81.4869 77.8604 82.293C77.8604 82.8304 77.6454 83.2604 77.3767 83.2604C77.0542 83.2604 76.9467 83.7441 77.0542 84.3352C77.1617 84.9264 77.108 85.3026 76.8393 85.1951C76.1943 84.7652 75.012 85.7863 74.9045 86.9149C74.8508 87.5598 74.2596 88.5272 73.5072 89.1184C72.3786 90.0857 72.3248 90.1932 73.2385 90.247C74.0446 90.247 73.8834 90.5157 72.4861 91.8592C71.5187 92.7191 70.9275 93.4715 71.0888 93.4715C71.25 93.4715 70.8738 94.009 70.2826 94.6001C69.4227 95.46 69.3152 95.8362 69.7989 96.1587C70.2826 96.4811 70.1214 96.6961 69.3152 96.9648C68.6166 97.1798 68.2404 97.4485 68.4016 97.6098C68.5628 97.8247 68.3479 98.2009 67.8642 98.5234C67.4342 98.8458 67.0043 99.867 66.8968 100.727C66.7893 101.64 66.6818 102.5 66.6281 102.715C66.6281 102.93 66.1444 102.93 65.6607 102.769C65.0158 102.5 64.8546 102.662 65.1233 103.307C65.3383 103.844 65.0695 104.489 64.3709 104.973C63.6722 105.456 63.511 105.832 63.8335 106.101C64.7471 106.639 64.5321 107.445 63.6185 107.122C63.0811 106.907 62.8123 107.122 62.8123 107.713C62.8123 108.197 62.5974 108.466 62.3824 108.305C62.1137 108.143 61.8987 108.358 61.8987 108.788C61.8987 109.218 62.1674 109.379 62.4899 109.218C62.8123 109.003 62.7586 109.272 62.3824 109.756C61.9525 110.239 61.7912 110.831 61.9524 111.153C62.1674 111.422 61.7912 111.798 61.2 112.013C60.1252 112.335 59.6952 113.356 60.6626 113.356C60.9313 113.356 61.0388 113.733 60.8776 114.163C60.6626 114.593 60.1789 114.969 59.749 114.969C59.2116 114.969 58.9966 115.345 59.2116 115.99C59.3728 116.796 59.2116 116.903 58.2979 116.689C57.2768 116.42 57.2231 116.474 57.9755 117.441C58.4054 117.978 58.5666 118.301 58.2979 118.086C58.083 117.871 57.3306 118.193 56.7394 118.784C55.7183 119.698 55.6645 119.913 56.3632 120.397C56.7931 120.665 57.5455 120.827 58.0292 120.719C58.4592 120.558 59.319 120.827 59.8565 121.203C60.7701 121.902 60.7164 121.955 58.9966 122.063C57.9755 122.063 56.7394 122.117 56.2557 122.063C55.7183 122.009 55.2883 122.224 55.2883 122.547C55.2883 122.815 55.0733 122.976 54.8046 122.761C53.9985 122.278 53.5148 123.514 54.1597 124.32C54.6434 124.857 54.5897 125.126 53.9447 125.395C53.4611 125.556 53.1923 125.932 53.3536 126.201C53.5148 126.47 53.0311 126.846 52.225 127.061L50.8277 127.383L52.2787 128.19C53.1386 128.566 54.0522 128.781 54.3747 128.566C54.6971 128.404 54.7509 128.512 54.5359 128.834C54.3209 129.211 53.1923 129.479 52.01 129.479C50.5589 129.479 49.9678 129.694 50.2365 130.071C50.3977 130.393 50.2365 130.877 49.8603 131.145C49.2691 131.522 49.3228 131.629 50.0752 131.629C50.5589 131.629 50.9889 131.898 50.9889 132.22C50.9889 132.489 50.8276 132.65 50.6127 132.543C50.344 132.381 49.699 132.489 49.1079 132.758C48.248 133.08 48.4092 133.188 49.914 133.241L51.795 133.349L50.0752 133.833C47.8718 134.477 46.7969 137.003 48.3555 137.971C49.7528 138.884 49.6453 139.691 48.0868 139.691C47.3344 139.691 46.582 139.959 46.4207 140.282C46.2058 140.604 45.7221 140.712 45.2921 140.55C44.8622 140.389 44.701 140.55 44.8622 141.034C45.0234 141.464 45.7758 141.84 46.5819 141.948C47.8718 142.109 47.9255 142.163 47.0656 143.023C46.582 143.506 46.152 144.205 46.152 144.581C46.152 144.957 45.8296 144.796 45.3996 144.205C44.8084 143.453 44.486 143.345 43.9485 143.829C43.6261 144.151 42.9812 144.312 42.605 144.151C42.0675 143.936 41.9601 144.151 42.175 144.689C42.4437 145.387 42.6587 145.441 43.5186 144.904C44.3247 144.42 44.6472 144.474 45.2921 145.334C45.937 146.247 45.937 146.462 45.1846 147C44.701 147.376 44.1635 147.483 44.0023 147.215C43.8411 147 43.1961 146.677 42.605 146.462C41.6913 146.193 41.3689 146.355 41.1539 147.322C40.9389 147.967 40.9389 148.612 41.0464 148.773C41.2077 148.881 41.3151 148.773 41.3151 148.451C41.3151 148.128 41.9063 148.021 42.6587 148.182C43.9485 148.397 43.9485 148.451 43.0887 149.149C42.175 149.848 42.175 149.902 43.1961 149.525C43.9127 149.311 43.9127 149.543 43.1961 150.224C42.6587 150.815 41.7451 151.353 41.2076 151.406C38.8967 151.621 38.7892 151.729 39.0579 152.75C39.2729 153.61 39.1654 153.771 38.413 153.502C37.9293 153.288 37.6069 153.341 37.7681 153.61C37.9293 153.879 37.7144 154.362 37.2844 154.739C36.8545 155.115 36.4783 155.706 36.4783 156.082C36.4783 156.512 36.1558 156.942 35.8333 157.05C35.2959 157.264 35.2959 157.372 35.8333 157.372C36.2095 157.426 36.3708 157.694 36.1558 158.071C35.8871 158.447 36.0483 158.554 36.5858 158.393C37.0157 158.178 37.6606 158.232 38.0368 158.501C38.4668 158.716 38.0906 159.038 36.9082 159.253C35.5646 159.522 35.2959 159.737 35.9408 160.113C36.4245 160.435 36.8545 160.382 37.1769 159.952C37.4994 159.522 37.5531 159.522 37.3919 160.113C37.2844 160.543 36.532 160.973 35.7796 161.08C34.866 161.188 34.3285 161.564 34.3285 162.155C34.3285 162.854 34.436 162.908 34.8122 162.316C35.1347 161.779 35.3497 161.779 35.6721 162.263C36.0483 162.854 35.6721 163.552 34.9735 163.66C32.8775 163.929 30.2978 166.025 31.5339 166.455C32.6088 166.777 32.2326 167.798 31.104 167.476C29.8679 167.153 29.4379 168.067 30.1366 169.41C30.5665 170.217 30.7815 170.27 31.4264 169.733C31.8564 169.41 32.3401 169.195 32.4475 169.357C33.0387 169.894 32.0713 171.291 30.9427 171.614C30.2978 171.775 29.9754 172.044 30.1366 172.259C30.7278 172.796 29.0617 174.14 28.0406 173.979C27.342 173.871 27.0732 174.14 27.127 174.892C27.2345 176.719 27.5569 177.579 28.4168 177.956C29.0617 178.224 29.0617 178.332 28.3093 178.332C27.7719 178.385 27.342 178.815 27.2882 179.299C27.2882 180.213 27.2345 180.159 26.8583 179.299C26.5358 178.332 26.4283 178.385 25.1922 179.46C24.0099 180.481 24.0099 180.589 24.9235 180.32C25.6401 180.105 25.658 180.266 24.9773 180.804C24.3861 181.234 24.0636 181.61 24.2786 181.61C24.4398 181.61 24.0636 182.201 23.365 182.954C22.7201 183.652 21.6989 185.318 21.1078 186.554C20.1941 188.597 19.1193 190.209 18.6356 190.209C18.5281 190.209 18.4744 189.027 18.4744 187.522C18.4744 186.017 18.6893 184.835 18.958 184.835C19.2268 184.835 19.1193 184.458 18.7431 184.028C18.2056 183.384 18.2057 183.222 18.7968 183.222C19.388 183.222 19.388 183.061 18.7431 182.631C18.1519 182.201 18.0982 181.986 18.6356 181.771C19.4955 181.449 19.4417 180.643 18.4206 179.622C17.722 178.869 17.3458 178.869 16.4859 179.407C15.5722 179.998 15.4648 179.944 15.626 179.084C15.7872 178.332 16.2172 178.171 17.6682 178.278C19.388 178.439 19.4955 178.385 18.6893 177.579C18.2056 177.096 17.3458 176.666 16.7009 176.612C15.841 176.558 15.7335 176.343 16.0559 175.645C16.3246 175.161 16.3784 174.623 16.2172 174.409C16.0559 174.247 16.1634 174.086 16.4859 174.086C16.8083 174.086 17.4532 174.785 17.9369 175.698C18.4206 176.558 19.0118 177.311 19.2805 177.311C20.0329 177.311 19.9254 175.483 19.173 174.731C18.6893 174.247 18.8506 173.979 19.8717 173.602C20.5703 173.334 20.7853 173.065 20.3554 173.011C19.6567 173.011 19.6567 172.957 20.3554 172.474C20.7853 172.205 20.9465 171.936 20.6241 171.936C20.3554 171.936 20.4629 171.668 20.8928 171.345C21.484 170.915 21.054 170.861 19.1193 171.023C17.722 171.184 16.4321 171.076 16.2709 170.808C16.0022 170.324 16.3246 170.217 19.0118 170.163C20.5703 170.109 21.4302 169.518 21.4302 168.443C21.4302 168.121 21.269 168.121 21.0003 168.443C20.4629 169.195 17.722 169.142 17.4532 168.389C17.077 167.422 18.6356 165.541 19.7642 165.648C20.9465 165.702 20.6241 167.099 19.4417 167.099C19.0118 167.099 18.8506 167.368 19.0655 167.744C19.3343 168.174 19.8717 167.906 20.6778 166.938C21.484 165.971 21.9677 165.756 22.1826 166.186C22.3439 166.562 22.4514 166.078 22.3439 165.218C22.2364 163.23 21.4302 162.585 20.5166 163.767C19.9254 164.627 19.8717 164.627 19.8179 163.714C19.8179 163.23 20.0867 162.8 20.4091 162.8C20.8391 162.8 20.8391 162.531 20.3554 161.994C19.8179 161.349 19.8717 161.188 20.6778 161.188C21.4302 161.188 21.484 161.026 21.0003 160.543C20.0329 159.575 20.1941 159.038 21.484 159.038C22.3439 159.038 22.5051 159.253 22.2364 160.113C22.0214 160.758 22.1289 161.188 22.5051 161.188C22.8275 161.188 22.935 160.919 22.7738 160.65C22.6126 160.328 22.935 160.113 23.5262 160.113C24.3861 160.113 24.6548 159.79 24.6548 158.823C24.6548 157.103 23.9024 156.673 22.8813 157.694C21.7527 158.823 21.4302 158.716 21.4302 157.157C21.4302 156.243 21.1078 155.813 20.5166 155.76C19.7104 155.76 19.7105 155.652 20.6241 155.33C21.3227 155.061 21.9139 155.169 22.2364 155.598C22.6126 156.136 23.2575 156.19 24.3323 155.921C25.8909 155.491 25.8909 155.437 24.8698 154.685C24.3323 154.255 23.4725 153.449 23.0425 152.911C22.2901 151.944 22.2901 151.89 23.4187 152.481C24.816 153.234 25.3535 153.288 24.9235 152.643C24.7623 152.32 25.0848 151.836 25.5684 151.514C26.2671 151.084 26.3208 150.815 25.8909 150.654C24.6011 150.117 25.1922 149.364 26.8583 149.472C28.3093 149.579 28.3631 149.687 27.5569 150.278C26.0521 151.407 27.4494 151.084 29.3842 149.902C30.674 149.096 31.104 148.451 30.9965 147.644C30.889 147 31.1577 146.408 31.6414 146.301C32.3401 146.086 32.3401 146.14 31.6414 146.623C30.9427 147.161 30.9427 147.215 31.6414 147.215C32.0713 147.215 32.77 147 33.1462 146.731C33.6836 146.408 33.5224 146.193 32.4475 145.925C31.2652 145.602 31.104 145.441 31.6414 144.796C32.1251 144.205 32.1251 143.99 31.6951 143.99C31.3727 143.99 31.104 143.667 31.104 143.238C31.104 142.378 29.4379 142.378 28.8468 143.184C28.578 143.56 28.0944 143.506 27.3957 143.076C25.3535 141.786 22.6126 143.506 22.9888 145.763C23.15 146.731 21.1615 145.817 21.0003 144.85C20.8391 144.259 21.0003 143.99 21.3765 144.205C21.6989 144.42 21.9677 144.366 21.9677 144.044C21.9677 143.775 21.6452 143.399 21.3227 143.291C20.6241 143.023 22.0214 142.754 23.5799 142.861C24.0636 142.861 24.1174 142.754 23.7412 142.593C23.365 142.431 23.2575 141.948 23.4187 141.518C23.58 141.142 23.8487 140.873 24.0636 140.98C24.2249 141.088 24.6548 140.873 25.031 140.497C25.5684 139.959 25.5147 139.637 24.9235 139.153C24.4398 138.777 24.1174 138.723 23.8487 139.153C23.6874 139.422 23.2575 139.691 22.935 139.691C22.5588 139.691 22.8275 139.207 23.4725 138.616C24.6548 137.487 25.461 137.165 24.9235 138.078C24.4398 138.884 25.8372 138.669 27.0195 137.81C28.3631 136.788 29.2767 136.735 28.4706 137.702C28.1481 138.132 28.0406 138.616 28.2018 138.777C28.4168 138.992 27.9331 139.368 27.1807 139.637C25.461 140.335 24.816 141.303 26.1596 141.303C26.697 141.303 27.342 141.464 27.5569 141.679C27.7719 141.948 28.6318 142.163 29.3842 142.163C32.0176 142.324 32.2326 142.378 31.9639 142.861C31.5877 143.453 34.9197 143.076 35.5646 142.431C35.8333 142.163 35.7796 141.786 35.4572 141.625C35.1347 141.41 34.866 141.464 34.866 141.733C34.866 142.539 33.3612 142.969 32.9312 142.27C32.7163 141.948 32.77 141.84 33.0925 142.001C33.4149 142.216 34.0598 141.894 34.5973 141.303C35.4034 140.389 35.4572 140.067 34.866 139.529C34.3285 139.046 34.2748 139.046 34.5435 139.529C34.7585 139.959 34.651 140.12 34.2211 139.959C33.8449 139.798 33.2537 139.046 32.8775 138.293C32.4475 137.398 32.6625 137.218 33.5224 137.756C34.3285 138.293 34.9197 138.401 35.1347 138.078C35.2959 137.756 35.1884 137.541 34.9197 137.541C34.5973 137.541 34.3285 137.165 34.3285 136.735C34.3285 136.305 33.9523 135.929 33.5224 135.929C33.0925 135.929 32.8775 135.606 33.0387 135.176C33.1999 134.746 33.7374 134.531 34.3285 134.692C35.3497 134.961 36.2633 134.048 35.4572 133.564C34.5973 133.026 30.6203 134.907 30.2441 136.036C30.0828 136.681 29.6529 136.95 29.1155 136.788C28.6855 136.627 28.0406 136.466 27.7182 136.466C26.9658 136.466 29.0617 135.176 31.2652 134.262C32.4475 133.779 32.6625 133.51 32.0713 133.134C31.5876 132.758 31.6951 132.704 32.4475 132.919C33.3612 133.188 33.5761 133.026 33.5224 131.79C33.5224 131.038 33.2537 130.285 32.9312 130.178C31.9101 129.856 29.3842 131.038 29.8141 131.683C30.0291 132.113 29.7604 132.166 28.9542 131.898C28.1481 131.629 27.8794 131.737 28.0944 132.059C28.2556 132.381 28.1481 132.811 27.8256 133.026C27.3957 133.241 27.342 133.188 27.5569 132.811C28.0944 131.952 27.5569 132.005 25.4072 133.026C24.3861 133.51 23.5799 134.262 23.5799 134.639C23.5799 135.069 23.3112 135.391 22.9888 135.391C22.6663 135.391 22.5051 135.821 22.6126 136.358C22.8276 137.111 22.6126 137.326 21.7527 137.272C20.7316 137.218 18.8506 138.401 19.3343 138.831C19.9792 139.368 22.2901 140.443 22.6126 140.335C22.8276 140.282 22.8813 140.604 22.7201 141.034C22.4513 141.733 22.2901 141.733 21.5915 141.034C21.1615 140.55 20.6241 140.335 20.3554 140.497C20.0867 140.658 19.8179 140.443 19.6567 140.12C19.4955 139.691 18.7968 140.12 17.722 141.303C16.8083 142.324 16.1634 143.453 16.3246 143.882C16.4859 144.42 16.2709 144.527 15.5185 144.259C14.5511 143.936 14.4436 144.097 14.6586 145.28C14.8198 146.247 14.6049 146.892 13.7987 147.43C13.1538 147.913 12.4551 148.128 12.1864 147.967C11.9177 147.806 11.7565 147.859 11.8102 148.128C12.0252 149.311 11.7027 149.955 11.1116 149.579C10.5741 149.311 10.5741 149.364 11.0578 149.902C11.7565 150.654 13.6375 150.224 13.1001 149.364C12.9388 149.096 13.0463 148.827 13.315 148.827C14.0137 148.827 14.0674 149.364 13.4225 150.385C13.1001 150.869 12.4551 151.03 11.434 150.762C10.0905 150.385 10.0367 150.439 10.7354 151.299C11.1653 151.836 11.2191 152.105 10.8429 151.89C10.5204 151.675 10.0905 151.729 9.87548 152.051C9.71425 152.32 9.71426 152.589 9.98298 152.643C10.1979 152.643 10.8429 152.75 11.3266 152.858C11.864 152.965 12.5089 152.643 12.8313 152.159C13.1001 151.621 13.3688 151.514 13.3688 151.836C13.3688 152.213 13.8525 152.589 14.4436 152.75C15.7872 153.073 15.7872 152.911 14.6049 151.729C13.6912 150.815 13.6912 150.762 14.6049 151.138C15.1423 151.353 15.9484 151.514 16.3784 151.514C16.9696 151.514 17.077 151.89 16.8083 152.965C16.5934 153.825 16.2172 154.685 15.8947 155.007C15.5185 155.383 15.4647 155.33 15.6797 154.954C15.8947 154.577 15.411 154.362 14.4436 154.309C12.5089 154.255 11.864 155.061 13.3688 155.545C13.96 155.76 14.3361 156.136 14.1212 156.405C13.9599 156.727 13.4763 156.835 13.0463 156.673C12.5626 156.512 12.2939 156.673 12.3477 157.05C12.4552 157.694 12.0252 159.199 11.2728 160.65C11.0041 161.134 10.6279 162.263 10.4667 163.23C10.2517 164.144 9.768 164.842 9.44555 164.789C9.06935 164.735 8.80062 165.057 8.80062 165.541C8.80062 166.025 8.47817 166.777 8.10197 167.261C7.5108 167.959 6.91963 170.539 6.7584 172.85C6.7584 173.226 6.43593 173.602 6.05973 173.764C5.5223 173.979 5.41482 173.602 5.68354 172.474C6.11348 170.27 5.14611 170.432 4.33996 172.635C3.48007 174.946 3.53381 175 4.7699 175.322C5.36107 175.483 5.73727 175.376 5.5223 175.107C5.36107 174.838 5.73727 174.623 6.32844 174.623H7.45705L6.32844 175.913C5.68353 176.666 4.82364 177.096 4.44744 176.934C4.01749 176.773 3.69504 176.881 3.69504 177.203C3.69504 177.472 4.12499 177.902 4.60868 178.063C5.41482 178.385 5.41481 178.547 4.7699 178.923C4.33995 179.192 3.80252 179.245 3.58755 179.138C3.1576 178.869 2.94263 179.729 3.10386 180.75C3.15761 180.965 2.94263 181.503 2.56643 181.933C2.08275 182.524 2.13649 182.739 2.7814 183.007C3.26509 183.169 3.85626 183.169 4.17872 183.007C4.44744 182.846 5.09236 182.846 5.68354 183.061C6.48968 183.384 6.38219 183.491 5.03861 183.76C4.17873 183.921 3.48007 184.351 3.53382 184.727C3.6413 185.103 3.31884 185.372 2.88889 185.372C1.6528 185.372 1.81403 188.973 3.05012 189.295C3.74878 189.51 3.64129 189.564 2.7814 189.618C2.08274 189.618 1.54532 189.94 1.54532 190.263C1.54532 190.585 1.92152 190.746 2.35146 190.531C2.88889 190.316 3.15761 190.585 3.15761 191.284C3.15761 191.875 2.78141 192.359 2.35146 192.359C1.92152 192.359 1.54532 192.574 1.54532 192.896C1.54532 193.165 1.81403 193.434 2.08275 193.434C2.40521 193.434 2.62018 193.702 2.62018 194.025C2.62018 194.293 2.40521 194.401 2.08275 194.24C1.11537 193.648 1.54532 196.174 2.62018 197.303C3.80252 198.593 3.6413 199.345 2.35146 198.27C1.70655 197.733 1.49157 197.787 1.22286 198.539C1.00789 199.023 1.16912 199.721 1.54532 200.044C2.08275 200.528 2.1365 200.528 1.86778 199.99C1.65281 199.668 1.76029 199.345 2.029 199.345C2.35146 199.345 2.62018 199.829 2.62018 200.366C2.62018 201.441 3.37258 201.549 4.71615 200.743C5.1461 200.474 5.57604 200.528 5.84476 201.011C6.43593 201.925 5.95225 202.731 5.14611 202.194C4.12499 201.549 1.33035 201.817 1.11538 202.57C0.954153 202.946 1.11537 203.107 1.49157 202.892C2.35146 202.355 2.83516 204.021 2.19024 205.472C1.43784 207.192 2.35146 208.804 3.58755 207.837C4.23246 207.299 4.33996 207.299 4.0175 207.783C3.80253 208.213 3.96375 208.482 4.44744 208.482C4.93112 208.482 5.30733 208.858 5.30733 209.288C5.30733 209.718 5.03861 210.094 4.71615 210.094C4.44744 210.094 4.28621 209.933 4.39369 209.664C4.55492 209.449 4.07124 209.234 3.37258 209.234C2.51269 209.18 2.08275 209.395 2.08275 210.04C2.08275 210.793 1.97526 210.793 1.54532 210.094C1.06163 209.395 1.00789 209.395 0.954143 210.094C0.954143 210.524 0.846663 211.599 0.79292 212.512C0.631691 214.125 2.19023 216.812 2.83515 216.113C3.05012 215.952 3.05012 216.167 2.83515 216.704C2.67392 217.188 2.29772 217.618 2.029 217.618C1.76029 217.618 1.54532 218.585 1.54532 219.768C1.54532 221.864 1.59906 221.917 3.42632 221.917C4.44744 221.917 5.30733 222.186 5.30733 222.455C5.30733 222.992 2.02901 222.831 1.00789 222.186C0.739174 222.025 0.470459 222.132 0.470459 222.401C0.470459 222.723 0.739174 222.992 1.00789 222.992C1.33035 222.992 1.54532 223.368 1.54532 223.798C1.54532 224.228 1.81403 224.604 2.08275 224.604C2.40521 224.604 2.62018 224.873 2.62018 225.196C2.62018 225.464 2.40521 225.626 2.1365 225.464C1.92152 225.303 1.70654 226.163 1.70654 227.345C1.70654 228.743 1.86778 229.28 2.1365 228.796C2.45895 228.313 2.62018 228.366 2.62018 229.173C2.62018 229.818 2.45894 230.516 2.24397 230.785C1.97526 231.107 2.029 231.161 2.29772 230.946C2.83515 230.516 4.33996 231 4.87739 231.806C5.14611 232.236 5.46856 232.182 5.95225 231.699C6.27471 231.376 6.81213 231.054 7.13459 231.054C7.4033 231.054 7.24208 231.376 6.70465 231.752C5.79102 232.397 5.84475 232.505 7.08084 233.042C8.10196 233.526 8.90812 233.526 10.2517 233.096C11.2191 232.773 12.3477 232.451 12.7239 232.343C13.1001 232.236 13.6375 231.537 13.9062 230.785C14.2824 229.871 14.8198 229.441 15.7335 229.441C16.7546 229.441 17.292 228.958 17.9907 227.56C18.4744 226.539 19.2268 225.679 19.6567 225.679C20.0867 225.679 20.2479 225.411 20.0867 225.142C19.8717 224.819 19.9254 224.604 20.1941 224.658C21.6452 224.927 22.5051 224.497 22.5051 223.583C22.5051 222.992 22.7738 222.347 23.15 222.132C23.5262 221.864 23.5799 221.971 23.3112 222.509C22.8813 223.153 22.9888 223.153 23.7412 222.509C24.4398 221.971 24.5473 221.595 24.0636 221.057C23.5799 220.466 23.7412 220.036 24.7086 219.069C26.5896 217.242 28.4168 213.533 27.7719 212.888C27.3957 212.512 27.7719 212.029 28.9005 211.491C29.8141 211.008 30.5665 210.255 30.5665 209.771C30.5665 209.341 30.3516 209.126 30.0291 209.288C29.7067 209.449 29.6529 209.234 29.8141 208.804C29.9754 208.32 30.6203 207.944 31.1577 207.944C32.3938 207.944 32.4475 207.514 31.3189 206.224C30.459 205.364 30.459 205.257 31.3189 204.988C33.9523 204.182 34.1136 204.021 33.1462 203.806C32.2863 203.591 32.2863 203.483 32.9312 202.785C33.3612 202.355 33.9523 202.032 34.2748 202.032C34.5435 202.032 34.9197 201.817 35.0809 201.602C35.2422 201.334 34.5973 201.28 33.6836 201.387C31.8026 201.656 31.9638 200.796 33.9523 199.883C34.7047 199.489 34.7585 199.56 34.1136 200.098C33.5224 200.581 33.3074 200.958 33.6299 200.958C34.0061 200.958 34.3823 200.743 34.5973 200.42C34.7585 200.151 35.2422 200.044 35.6721 200.259C36.1021 200.42 36.4783 200.259 36.4783 199.883C36.4783 199.56 36.2633 199.453 35.9408 199.614C35.6721 199.775 35.4034 199.668 35.4034 199.345C35.4034 198.647 37.0157 196.927 37.6606 196.927C38.5743 196.927 38.0906 195.852 37.0694 195.583C36.1558 195.368 36.4245 195.1 38.3593 194.347C40.509 193.434 40.724 193.165 40.4552 192.036C40.2403 191.284 40.3478 190.746 40.5627 190.8C41.7988 191.015 42.3363 190.585 43.1424 188.865C43.6261 187.844 44.3785 186.984 44.8084 186.984C45.2384 186.984 45.3996 186.608 45.2384 185.963C45.0771 185.372 45.5608 184.405 46.4745 183.491C47.6568 182.309 47.7643 181.933 47.1731 181.556C46.5819 181.18 46.6357 181.073 47.4956 181.019C48.0868 180.965 48.7317 180.965 49.0004 181.019C49.2154 181.019 49.3766 180.804 49.3766 180.535C49.3766 180.213 49.699 179.998 50.0752 179.998C50.4514 179.998 51.0426 179.514 51.4188 178.869C51.8488 178.224 51.9025 177.902 51.6338 178.063C51.3113 178.224 50.9351 178.009 50.7739 177.579C50.5589 176.988 50.9351 176.666 52.1712 176.397C53.1386 176.236 53.9447 175.645 54.0522 175.107C54.2135 174.516 54.4822 174.194 54.6971 174.355C54.9121 174.462 55.7183 173.979 56.5244 173.334C58.0292 172.044 58.0292 170.324 56.5781 170.324C56.1482 170.324 55.8257 170.109 55.8257 169.84C55.8257 169.518 56.3094 169.357 56.8469 169.41C57.438 169.41 57.7605 169.679 57.653 169.894C57.4918 170.109 57.653 170.324 57.9755 170.324C58.8891 170.324 61.2538 168.389 60.8238 168.013C60.2864 167.476 61.7912 166.025 62.8661 166.025C63.4035 166.025 63.9947 165.541 64.1559 164.95C64.3709 164.359 64.7471 163.982 65.0158 164.144C65.2845 164.359 65.4995 164.197 65.4995 163.929C65.4995 163.606 65.2308 163.337 64.9083 163.337C64.6396 163.337 64.4784 163.122 64.6396 162.854C64.8546 162.585 65.5532 162.424 66.3056 162.531C67.1655 162.585 67.6492 162.37 67.6492 161.94C67.6492 161.51 67.9717 161.188 68.3479 161.188C69.1003 161.188 71.9486 158.339 71.9486 157.587C71.9486 157.318 72.5936 156.512 73.3997 155.76C74.1521 155.061 74.6358 154.792 74.4208 155.115C73.9371 155.975 74.1521 155.975 75.9794 155.276C77.108 154.846 77.2692 154.577 76.8393 153.717C76.3556 152.858 76.6243 152.589 78.6665 151.783C79.9564 151.245 80.9237 150.6 80.7625 150.332C80.6013 150.117 80.7087 149.902 80.9775 149.902C81.2462 149.902 81.6224 149.418 81.7836 148.827C81.9448 148.236 82.536 147.752 83.1272 147.752C83.7184 147.752 84.3095 147.268 84.4708 146.677C84.632 146.086 85.1694 145.602 85.7069 145.602C86.5667 145.602 86.5667 145.549 85.5994 144.796C84.632 144.044 84.632 144.044 85.7069 144.312C86.9967 144.635 89.1464 143.13 89.1464 141.948C89.1464 141.572 89.3614 141.357 89.6301 141.518C90.4362 142.055 91.941 141.195 91.6186 140.443C91.4574 139.959 91.8336 139.583 92.6934 139.368C93.4459 139.153 93.8758 138.884 93.7146 138.723C93.5533 138.562 93.8221 137.971 94.3595 137.433C94.9507 136.735 95.0044 136.466 94.5207 136.466C93.9833 136.466 93.9833 136.305 94.5207 135.66C95.0044 135.069 95.3269 134.961 95.5956 135.391C95.8643 135.821 96.0792 135.714 96.2942 135.122C96.7779 133.94 95.3806 133.51 93.4458 134.316C92.586 134.692 91.5648 134.854 91.1886 134.692C90.7587 134.531 90.9737 134.209 91.8336 133.886C92.586 133.564 92.8547 133.295 92.4247 133.295C91.8336 133.241 91.8873 133.026 92.6934 132.435C93.5533 131.737 93.6071 131.575 92.9084 131.092C92.4785 130.823 92.371 130.554 92.6934 130.554C93.0696 130.554 93.4458 130.071 93.6071 129.533C93.9295 128.297 91.6186 126.953 90.9737 127.975C90.705 128.351 90.8124 128.404 91.2961 128.136C91.7798 127.867 91.8873 127.921 91.6186 128.351C91.4036 128.673 90.9199 128.781 90.5975 128.566C90.2213 128.351 89.5226 128.136 89.0389 128.136C86.8892 128.136 88.5552 127.061 90.9199 126.9C92.6934 126.792 93.4458 126.9 93.1771 127.276C93.0159 127.598 93.2309 127.867 93.6608 127.867C94.1982 127.867 94.3595 127.545 94.1982 127.061C93.8758 126.255 93.0159 126.04 91.1886 126.201C90.3825 126.309 90.3287 126.094 90.705 125.072C90.9199 124.374 91.0274 123.514 90.8662 123.084C90.705 122.654 90.8662 122.493 91.2424 122.708C91.8336 123.084 92.1023 122.385 91.5111 121.794C91.0274 121.31 89.6301 122.009 90.0063 122.547C90.1675 122.815 89.8988 122.869 89.4151 122.708C88.6627 122.385 88.6627 122.278 89.5226 121.633C90.4362 120.988 90.3825 120.934 89.1464 120.934C86.9429 120.988 85.8681 121.579 86.4593 122.493C87.2654 123.729 87.1042 124.051 85.8143 123.675C85.0619 123.514 84.7932 123.568 85.0619 123.998C85.2769 124.374 85.1694 124.642 84.9007 124.642C84.5783 124.642 84.3095 124.374 84.3095 124.105C84.3095 123.783 84.0946 123.568 83.8259 123.568C83.5571 123.568 83.3959 124.159 83.5571 124.911C83.7184 125.932 83.6109 126.147 82.966 125.932C82.1061 125.556 80.3863 127.007 80.9775 127.598C81.1924 127.813 80.9775 127.867 80.5475 127.76C80.1176 127.706 79.6339 127.437 79.4727 127.222C79.3114 127.061 78.7203 127.222 78.1828 127.652C77.5917 128.082 77.4304 128.404 77.8066 128.404C78.1828 128.404 78.2903 128.619 78.1291 128.942C77.9679 129.211 77.2155 129.479 76.5168 129.479C75.3882 129.479 75.2807 129.641 75.6569 130.662C76.0331 131.737 75.8719 131.952 74.1521 132.489C73.0773 132.811 71.9486 132.919 71.6799 132.758C71.3575 132.596 71.6799 132.919 72.3786 133.564C73.4534 134.531 73.5072 134.746 72.8085 135.015C72.2711 135.23 71.9486 135.069 71.9486 134.585C71.9486 133.671 70.9813 133.564 69.7989 134.316C68.939 134.854 68.9928 134.907 70.8738 135.767L72.2174 136.412H70.7663C69.9064 136.466 69.2615 136.681 69.2615 136.95C69.2615 137.218 68.6703 137.595 67.9179 137.756C67.1655 137.971 66.5743 138.454 66.5743 138.938C66.5743 139.368 66.3056 139.583 66.0369 139.422C65.7145 139.207 65.0695 139.368 64.6396 139.744C63.6722 140.55 62.5974 142.431 63.1885 142.324C64.5321 142.109 65.4995 142.431 65.177 143.023C64.9083 143.453 65.2308 143.506 66.3594 143.291C67.273 143.13 68.2941 143.184 68.6166 143.399C69.0465 143.614 68.4554 143.829 67.2193 143.882C65.9832 143.936 64.8008 143.668 64.4784 143.291C63.8872 142.539 60.4476 142.7 60.9313 143.453C61.0926 143.721 60.7164 144.259 60.1252 144.689C59.534 145.065 59.2116 145.549 59.3728 145.763C59.534 145.925 59.1578 145.925 58.4592 145.763C57.5993 145.495 57.3843 145.602 57.7068 146.086C57.9755 146.623 57.8142 146.677 56.9544 146.408C55.987 146.086 55.8795 146.193 56.3094 147.322C56.7394 148.558 56.6319 148.719 53.2461 150.547C52.225 151.084 51.9025 151.03 51.4726 150.385C51.0426 149.74 50.9351 149.74 50.5052 150.439C49.7528 151.514 49.4303 150.977 49.7528 149.203C50.0215 147.859 50.9889 147.107 50.9889 148.289C50.9889 148.558 51.3651 148.827 51.795 148.827C52.7624 148.827 52.6549 147.752 51.5263 146.838C50.8276 146.247 50.8814 146.032 51.9562 145.119C52.6012 144.527 53.1386 143.829 53.1386 143.56C53.1386 143.291 53.5148 142.861 53.9985 142.7C54.4284 142.539 54.6434 142.163 54.4822 141.84C54.3209 141.572 54.4822 141.464 54.9121 141.625C55.3421 141.786 55.8795 141.679 56.0407 141.41C56.4169 140.765 53.4611 140.12 52.3325 140.55C50.8814 141.142 51.4726 140.282 53.1386 139.422C53.9985 138.992 55.4495 138.616 56.3632 138.616C57.3843 138.616 57.9755 138.347 57.9755 137.863C57.9755 137.38 57.5993 137.218 57.0081 137.326C56.5244 137.487 55.5033 137.326 54.7509 137.003C53.891 136.645 53.8552 136.538 54.6434 136.681C55.557 136.842 55.8258 136.735 55.6108 136.143C55.4496 135.767 55.5033 135.445 55.7183 135.499C55.9332 135.552 56.6856 135.337 57.438 135.015C58.1904 134.692 59.2116 134.262 59.749 134.101C60.2327 133.94 60.6626 133.564 60.6626 133.295C60.6626 132.973 60.3402 132.865 59.9102 133.026C58.3517 133.618 58.5666 132.22 60.1252 131.522C61.2 131.038 61.63 130.554 61.415 130.017C61.1284 129.229 61.1284 128.279 61.415 127.168C61.6837 126.255 62.2212 125.717 62.8661 125.717C63.511 125.717 63.726 125.449 63.5647 124.911C63.3498 124.374 63.5647 124.105 64.2097 124.105C65.0158 124.105 65.0695 123.998 64.4784 123.621C63.8335 123.191 63.8335 123.03 64.5321 122.278C65.0158 121.848 65.4995 121.633 65.7145 121.794C66.0369 122.117 66.2519 120.665 66.0907 119.644C66.0369 119.376 66.2519 119.322 66.5743 119.537C66.8431 119.698 67.3805 119.698 67.7567 119.483C68.1329 119.214 68.0254 118.892 67.3805 118.355C66.7356 117.889 66.7535 117.638 67.4342 117.602C67.9717 117.548 68.6166 117.548 68.8853 117.602C69.4765 117.71 69.369 117.226 68.4016 115.775C67.8283 114.879 68.1687 114.431 69.4227 114.431C70.5513 114.431 71.4112 114.109 71.5724 113.679C71.7874 113.141 71.6262 112.98 71.0888 113.195C70.0676 113.571 70.3364 111.637 71.5187 110.293C71.9487 109.756 72.2711 108.95 72.2174 108.466C72.1099 107.928 72.9698 107.122 74.5283 106.316C76.8393 105.08 77.6454 103.736 75.8181 104.113C75.1195 104.274 75.0657 104.166 75.6569 103.468C76.0869 102.984 76.8393 102.608 77.4304 102.608C78.2903 102.608 78.3978 102.447 77.9141 101.855C77.4304 101.264 77.5379 101.049 78.5053 100.781C79.4727 100.512 79.5802 100.351 78.989 99.9744C78.3978 99.5982 78.5053 99.437 79.4727 99.1145C80.44 98.7921 80.5475 98.6309 79.9564 98.2547C79.3652 97.8785 79.4189 97.771 80.2251 97.771C80.87 97.771 81.085 97.5023 80.87 96.9111C80.7088 96.4812 80.7625 96.2662 81.085 96.4274C81.6224 96.7499 81.8911 95.6213 81.6224 94.0627C81.5686 93.3641 81.6761 93.3641 82.3748 93.9552C83.2347 94.7076 83.2884 94.6001 84.0408 92.0205C84.1483 91.698 83.8259 91.2681 83.3422 91.1606C82.8585 90.9994 83.2347 90.8919 84.202 90.8381C85.2769 90.7844 85.9218 90.5157 85.9218 90.032C85.9218 89.6558 86.298 89.0109 86.728 88.6347C87.2117 88.2585 87.4804 87.6136 87.3191 87.1836C87.1579 86.8074 87.3191 86.4849 87.6953 86.4849C88.1253 86.4849 88.0178 86.27 87.5341 85.9475C86.8892 85.5176 86.8892 85.4101 87.8028 85.4101C88.6627 85.4101 88.7165 85.3026 88.1253 84.9264C87.4804 84.4965 87.6416 84.3352 88.7702 84.0665C89.8451 83.7978 90.2213 83.3679 90.2213 82.4005C90.2213 81.7018 90.3825 81.1644 90.6512 81.1644C91.6723 81.3256 91.8873 81.0569 91.2961 80.3045C90.6512 79.5521 91.0274 79.2296 92.4247 79.3909C92.9622 79.4446 92.7472 77.6174 92.156 77.1874C91.7798 76.865 91.8336 76.8112 92.371 76.9724C93.3384 77.2412 95.0581 76.435 95.0581 75.7363C95.0581 75.4139 94.6282 75.1989 94.1445 75.1452C93.3921 75.1452 93.4458 75.0377 94.4132 74.6615C95.0581 74.3928 95.5956 73.9091 95.5956 73.5866C95.5956 73.3179 95.9718 73.0492 96.4017 73.0492C96.8317 73.0492 97.2079 72.673 97.2079 72.2431C97.2079 71.8668 97.5303 71.2757 97.9065 71.0607C98.229 70.8457 98.8739 70.2008 99.3038 69.6634C99.9487 68.8572 99.9487 68.5885 99.0351 67.8899C98.3902 67.3525 98.444 67.1554 99.1964 67.2987C99.9488 67.4599 100.755 67.1375 101.561 66.2776C102.582 65.149 102.636 64.9877 101.83 64.9877C101.346 64.9877 101.077 64.719 101.239 64.4503C101.454 64.1279 101.83 64.0204 102.098 64.1816C102.851 64.6653 102.69 63.1605 101.937 62.3543C101.346 61.8169 101.507 61.8169 102.636 62.1931C104.356 62.8918 106.022 62.0856 104.732 61.2257C104.302 60.957 104.194 60.6883 104.517 60.6883C104.786 60.6883 105.646 60.1509 106.29 59.5597C107.258 58.6461 107.365 58.3236 106.828 57.9474C106.452 57.7325 106.29 57.3563 106.505 57.1413C106.667 56.9263 107.258 57.0875 107.688 57.4637C108.171 57.8399 108.494 57.9474 108.44 57.6787C108.225 56.4964 108.548 55.314 109.085 55.314C109.354 55.314 109.461 55.6365 109.3 55.9589C109.085 56.3351 109.3 56.1739 109.784 55.6365C110.214 55.099 110.482 54.4004 110.321 54.1317C110.16 53.863 110.321 53.7555 110.751 53.8092C111.181 53.9167 111.396 53.5942 111.289 53.0031C111.181 52.3581 111.503 52.0894 112.417 52.0894C113.277 52.0894 113.814 51.7132 114.029 51.0146C114.191 50.4234 114.083 50.0472 113.814 50.2622C113.546 50.4234 113.331 50.3159 113.331 50.0472C113.331 49.7247 113.976 49.3485 114.782 49.1336C115.803 48.9186 116.018 48.6499 115.534 48.3274C114.997 48.005 115.104 47.8437 115.91 47.5213C116.555 47.36 117.039 47.0376 117.039 46.8226C116.824 45.5328 117.2 45.0491 118.114 45.3716C118.759 45.5328 119.242 45.3716 119.457 44.8341C119.619 44.3504 119.565 44.1355 119.242 44.2967C118.383 44.8341 118.651 43.8668 119.78 42.5232C120.371 41.8245 121.07 41.3946 121.392 41.6095C121.661 41.7708 121.93 41.6633 121.93 41.3946C121.93 41.0721 122.36 40.8034 122.897 40.8034C123.757 40.7497 123.757 40.6959 122.843 40.051C121.876 39.2986 121.93 39.2448 123.058 38.9224C123.972 38.5999 124.079 38.4387 123.488 38.0088C122.951 37.6326 123.219 37.5788 124.348 37.8475C125.387 38.0625 125.566 37.9013 124.886 37.3638C124.169 36.8264 124.223 36.5398 125.047 36.504C125.692 36.504 126.229 36.2352 126.229 35.9665C126.229 35.6441 126.82 35.1066 127.573 34.7842C128.325 34.4617 128.862 33.8168 128.809 33.3331C128.701 32.7957 128.97 32.527 129.561 32.6345C130.743 32.7957 131.388 31.6671 130.475 31.0759C129.884 30.6997 129.991 30.5922 130.797 30.5922C131.818 30.5385 134.452 28.9799 133.484 28.9799C133.216 28.9799 133.431 28.6575 134.022 28.2813C134.559 27.8513 134.828 27.2602 134.613 26.9377C134.291 26.4003 135.365 25.4866 136.709 25.2179C138.053 24.8955 138.536 24.5193 138.268 24.0893C138.106 23.8206 138.268 23.6056 138.536 23.6056C139.504 23.6056 145.899 17.6939 145.684 16.9953C145.63 16.7803 145.738 16.6728 146.007 16.7265C146.651 16.9415 148.962 15.4905 150.575 13.8244C151.435 13.0183 152.348 12.2659 152.617 12.2659C152.886 12.2121 153.369 12.1046 153.638 12.0509C153.96 11.9971 154.337 11.8897 154.605 11.8359C154.82 11.7822 154.605 11.5135 154.175 11.2447C153.477 10.8148 153.477 10.7073 154.337 10.6536C154.82 10.5998 155.519 10.4924 155.788 10.4386C156.11 10.3849 156.594 10.2774 156.863 10.2236C157.185 10.2236 157.4 9.79369 157.4 9.36375C157.4 8.93381 157.669 8.5576 157.937 8.5576C158.26 8.5576 158.475 8.28889 158.475 7.96643C158.475 7.64397 158.099 7.53648 157.615 7.69771C157.024 7.91269 156.648 7.64397 156.486 6.94531C156.325 6.35414 155.788 5.87045 155.25 5.87045C154.283 5.87045 152.886 7.10654 153.369 7.59023C153.531 7.69771 153.262 7.85894 152.832 7.85894C152.348 7.85894 152.079 7.53648 152.241 7.16028C152.402 6.73034 152.241 6.56912 151.757 6.73035C151.327 6.89157 151.058 7.32152 151.112 7.64398C151.166 8.02018 150.843 8.18141 150.413 8.07392C149.661 7.91269 148.371 7.69772 146.813 7.53649C146.329 7.48275 146.383 7.16029 147.028 6.40788C147.619 5.76297 148.156 5.54799 148.425 5.81671C149.016 6.40788 150.467 5.70923 152.456 3.98945C153.154 3.39828 153.907 2.96833 154.068 3.02207C154.713 3.23705 156.594 2.53839 156.97 1.94721C157.561 0.97984 156.916 0.496155 155.143 0.496155C153.746 0.496155 153.584 0.603641 154.175 1.3023ZM152.026 3.72073C152.026 3.98945 151.65 4.25816 151.166 4.25816C150.736 4.25816 150.521 3.98945 150.682 3.72073C150.843 3.39828 151.22 3.1833 151.542 3.1833C151.811 3.1833 152.026 3.39828 152.026 3.72073ZM156.54 8.61135C156.379 8.88007 155.788 8.77258 155.25 8.45012C154.552 7.96643 154.39 7.69772 154.874 7.37526C155.573 6.94532 156.97 7.91269 156.54 8.61135ZM147.726 8.5576C147.726 8.82632 147.35 9.09503 146.92 9.09503C146.49 9.09503 146.114 8.82632 146.114 8.5576C146.114 8.23515 146.49 8.02017 146.92 8.02017C147.35 8.02017 147.726 8.23515 147.726 8.5576ZM148.532 10.1699C148.371 10.4386 147.941 10.7073 147.673 10.7073C147.35 10.7073 147.296 10.4386 147.458 10.1699C147.619 9.84744 148.049 9.63246 148.317 9.63246C148.64 9.63246 148.694 9.84744 148.532 10.1699ZM129.991 29.5174C129.991 29.7861 129.454 30.0548 128.809 30.0548C127.788 30.0548 127.734 29.9473 128.379 29.5174C129.4 28.8187 129.991 28.8187 129.991 29.5174ZM126.068 30.3773C125.907 30.5385 125.423 30.5922 125.047 30.431C124.617 30.2698 124.778 30.1085 125.369 30.1085C125.96 30.0548 126.283 30.216 126.068 30.3773ZM126.767 32.2045C127.196 32.4732 127.358 32.8494 127.143 33.1182C126.874 33.3331 126.552 33.2256 126.337 32.9032C126.122 32.5807 125.369 32.2045 124.617 32.0433L123.273 31.8283L124.617 31.7746C125.369 31.7208 126.337 31.8821 126.767 32.2045ZM119.565 35.9128C119.565 36.9339 117.953 36.8802 117.254 35.8053C117.093 35.5366 117.2 35.4291 117.523 35.6441C117.845 35.8053 118.221 35.7516 118.436 35.4291C118.974 34.5692 119.565 34.7842 119.565 35.9128ZM116.878 37.8475C116.717 38.2775 116.878 38.6537 117.2 38.6537C117.845 38.6537 117.308 39.4598 116.663 39.4598C116.448 39.4598 115.964 39.6748 115.534 39.9435C114.943 40.3197 114.836 40.2122 115.104 39.5673C115.265 39.0299 115.212 38.6537 114.889 38.6537C114.567 38.6537 114.459 38.4387 114.674 38.1162C114.836 37.8475 115.319 37.7401 115.749 37.955C116.179 38.1163 116.555 37.955 116.555 37.6326C116.555 37.3101 116.717 37.0414 116.878 37.0414C117.039 37.0414 117.093 37.4176 116.878 37.8475ZM121.768 37.9013C121.607 38.0625 121.123 38.1163 120.747 37.955C120.317 37.7938 120.479 37.6326 121.07 37.6326C121.661 37.5788 121.983 37.74 121.768 37.9013ZM120.156 40.051C119.995 40.2122 119.511 40.266 119.135 40.1047C118.705 39.9435 118.866 39.7823 119.457 39.7823C120.049 39.7285 120.371 39.8898 120.156 40.051ZM104.356 53.0031C103.979 53.1643 103.657 53.648 103.657 54.1317C103.657 54.6691 103.173 55.3678 102.636 55.6902C101.83 56.1739 101.615 56.1739 101.722 55.6902C101.83 54.7228 104.356 52.0357 104.678 52.4119C104.839 52.6269 104.678 52.8956 104.356 53.0031ZM100.809 57.7862C100.701 57.8937 100.164 57.8399 99.6263 57.625C98.6589 57.3025 98.6589 57.2488 99.68 56.9263C100.594 56.5501 101.454 57.195 100.809 57.7862ZM87.9103 77.6711C87.7491 77.8323 87.2654 77.8861 86.8892 77.7248C86.4593 77.5636 86.6205 77.4024 87.2117 77.4024C87.8028 77.3486 88.1253 77.5099 87.9103 77.6711ZM83.9871 81.5406C84.1483 81.8093 83.9333 82.0243 83.5034 82.0243C83.0734 82.0243 82.8585 81.8093 83.0197 81.5406C83.1809 81.3256 83.3959 81.1106 83.5034 81.1106C83.6109 81.1106 83.8258 81.3256 83.9871 81.5406ZM89.5226 81.9705C89.3614 82.1318 88.8777 82.1855 88.5015 82.0243C88.0715 81.8631 88.2328 81.7018 88.8239 81.7018C89.4151 81.6481 89.7376 81.8093 89.5226 81.9705ZM75.7107 90.7844C75.7107 91.0531 75.6032 91.3218 75.4957 91.3218C75.3345 91.3218 75.0657 91.0531 74.9045 90.7844C74.7433 90.4619 74.8508 90.247 75.1195 90.247C75.4419 90.247 75.7107 90.4619 75.7107 90.7844ZM75.4957 92.8804C75.2807 93.2028 74.797 93.3103 74.3671 93.0953C73.7759 92.8804 73.6684 93.0416 73.8834 93.6865C74.0984 94.2777 73.9371 94.5464 73.2922 94.5464C72.0561 94.5464 72.5398 93.3641 74.0984 92.5579C75.4957 91.8593 76.0331 91.9667 75.4957 92.8804ZM74.9045 105.295C74.7433 105.564 74.3133 105.832 74.0446 105.832C73.7222 105.832 73.6684 105.564 73.8297 105.295C73.9909 104.973 74.4208 104.758 74.6895 104.758C75.012 104.758 75.0657 104.973 74.9045 105.295ZM69.5302 106.37C69.6914 106.639 69.6377 106.907 69.3152 106.907C69.0465 106.907 68.6166 106.639 68.4554 106.37C68.2941 106.047 68.3479 105.832 68.6703 105.832C68.939 105.832 69.369 106.047 69.5302 106.37ZM63.8872 111.959C63.8872 112.12 63.6722 112.389 63.3498 112.55C63.0811 112.712 62.8123 112.604 62.8123 112.335C62.8123 112.013 63.0811 111.744 63.3498 111.744C63.6722 111.744 63.8872 111.852 63.8872 111.959ZM68.4554 113.786C68.2941 113.948 67.8642 113.786 67.488 113.41C67.0043 112.873 67.058 112.819 67.8104 113.141C68.3479 113.303 68.6166 113.625 68.4554 113.786ZM64.1022 113.786C64.2634 114.055 64.0484 114.27 63.6185 114.27C63.1885 114.27 62.9736 114.055 63.1348 113.786C63.296 113.571 63.511 113.356 63.6185 113.356C63.726 113.356 63.9409 113.571 64.1022 113.786ZM60.6626 118.462C59.9102 118.838 59.2116 119.053 59.0503 118.946C58.7279 118.57 60.2327 117.656 61.2 117.71C61.6837 117.71 61.4688 118.032 60.6626 118.462ZM88.8239 124.213C88.6627 124.428 88.3403 124.642 88.0178 124.642C87.7491 124.642 87.5341 124.428 87.5341 124.213C87.5341 123.944 87.9103 123.729 88.3403 123.729C88.7702 123.729 88.9852 123.944 88.8239 124.213ZM56.3632 125.986C55.987 126.47 55.557 126.685 55.3421 126.523C55.1808 126.362 55.3958 125.986 55.8257 125.717C56.9544 124.965 57.1156 125.072 56.3632 125.986ZM60.1252 126.577C60.1252 126.685 59.319 126.792 58.4054 126.792C57.1693 126.792 56.8469 126.631 57.3843 126.309C58.0292 125.879 60.1252 126.094 60.1252 126.577ZM53.0849 131.79C53.0849 132.274 52.9774 132.22 52.7624 131.737C52.6549 131.414 52.225 131.253 51.9562 131.414C51.58 131.629 51.5263 131.522 51.7413 131.145C52.225 130.447 53.1386 130.877 53.0849 131.79ZM84.847 133.026C84.847 133.456 83.8259 133.725 83.5571 133.349C83.3959 133.08 83.6109 132.865 84.0408 132.865C84.4708 132.865 84.847 132.973 84.847 133.026ZM26.1059 135.714C25.9446 135.875 25.4609 135.929 25.0847 135.767C24.6548 135.606 24.816 135.445 25.4072 135.445C25.9984 135.391 26.3208 135.552 26.1059 135.714ZM50.2902 135.714C50.129 135.875 49.6453 135.929 49.2691 135.767C48.8392 135.606 49.0004 135.445 49.5916 135.445C50.1827 135.391 50.5052 135.552 50.2902 135.714ZM93.8221 137.165C94.037 137.487 93.8758 137.541 93.4458 137.272C93.0696 137.057 92.0485 136.842 91.2424 136.896C89.7913 136.95 89.3076 136.52 90.0063 135.767C90.4362 135.391 93.3384 136.412 93.8221 137.165ZM51.2038 138.347C50.7739 139.046 50.5052 139.852 50.6664 140.12C50.8276 140.389 50.6127 140.604 50.129 140.604C49.1616 140.604 49.6453 138.669 50.8814 137.648C52.1175 136.681 52.1712 136.842 51.2038 138.347ZM30.4053 138.401C30.2441 138.562 29.7604 138.616 29.3842 138.454C28.9542 138.293 29.1155 138.132 29.7066 138.132C30.2978 138.078 30.6203 138.239 30.4053 138.401ZM68.939 138.508C69.1003 138.777 68.8853 138.992 68.4554 138.992C68.0254 138.992 67.8104 138.777 67.9717 138.508C68.1329 138.293 68.3479 138.078 68.4554 138.078C68.5628 138.078 68.7778 138.293 68.939 138.508ZM78.3978 138.616C77.9679 138.884 77.108 139.099 76.5168 139.099C75.6569 139.046 75.6569 138.992 76.7855 138.616C78.6665 138.024 79.3652 138.024 78.3978 138.616ZM74.6895 139.529C75.1553 140.138 75.0478 140.192 74.3671 139.691C73.7759 139.261 73.1847 138.831 73.0773 138.777C72.9698 138.669 73.0773 138.616 73.3997 138.616C73.7222 138.616 74.3133 139.046 74.6895 139.529ZM31.9101 139.691C32.0713 139.959 31.9639 140.228 31.6951 140.228C31.3727 140.228 31.104 139.959 31.104 139.691C31.104 139.368 31.2115 139.153 31.3189 139.153C31.4802 139.153 31.7489 139.368 31.9101 139.691ZM80.8162 139.691C80.655 139.959 80.1713 140.228 79.8489 140.228C79.4727 140.228 79.5264 140.013 80.0101 139.691C81.0312 139.046 81.2462 139.046 80.8162 139.691ZM65.8757 140.55C65.7145 140.712 65.2308 140.765 64.8546 140.604C64.4246 140.443 64.5859 140.282 65.177 140.282C65.7682 140.228 66.0907 140.389 65.8757 140.55ZM74.6358 143.13C74.6358 143.238 74.2596 143.506 73.7759 143.668C73.346 143.829 73.131 143.775 73.2922 143.453C73.6147 142.915 74.6358 142.7 74.6358 143.13ZM29.2767 145.334C29.7604 145.763 29.8679 146.14 29.5992 146.14C29.3305 146.14 28.793 145.763 28.4168 145.334C28.0406 144.904 27.9331 144.527 28.0944 144.527C28.3093 144.527 28.8468 144.904 29.2767 145.334ZM48.033 145.602C47.7106 146.14 48.4092 146.355 49.8065 146.193C50.129 146.14 50.4514 146.355 50.4514 146.623C50.4514 146.892 49.914 147.053 49.3228 146.946C48.6779 146.838 47.6568 146.946 47.1194 147.268C45.9908 147.859 46.0983 147.43 47.3881 145.71C47.9793 144.957 48.5167 144.85 48.033 145.602ZM63.6185 146.14C63.7797 146.408 63.5647 146.677 63.1348 146.677C62.6511 146.677 62.2749 146.408 62.2749 146.14C62.2749 145.817 62.4899 145.602 62.7586 145.602C63.081 145.602 63.4573 145.817 63.6185 146.14ZM69.7989 147.215C69.7989 147.483 69.369 147.752 68.8853 147.752C68.0791 147.752 68.0254 147.644 68.7241 147.215C69.7452 146.57 69.7989 146.57 69.7989 147.215ZM26.2671 147.43C26.2671 147.537 25.8909 147.806 25.4072 147.967C24.9773 148.128 24.7623 148.074 24.9235 147.752C25.246 147.215 26.2671 147 26.2671 147.43ZM16.0559 149.364C14.9811 150.063 14.2824 150.063 14.7124 149.364C14.8736 149.042 15.4647 148.827 15.9484 148.827C16.7546 148.827 16.7546 148.934 16.0559 149.364ZM17.6145 149.955C16.4321 150.654 15.9484 150.547 16.7009 149.687C17.0771 149.257 17.6145 149.042 17.8832 149.203C18.0982 149.364 17.9907 149.687 17.6145 149.955ZM20.6241 149.364C20.4629 149.633 19.8717 149.902 19.388 149.848C18.6356 149.848 18.6893 149.74 19.5492 149.364C20.5166 148.97 20.8749 148.97 20.6241 149.364ZM65.2845 149.311C65.1233 149.579 64.4784 149.687 63.8872 149.525C62.3824 149.149 62.5436 148.827 64.2097 148.827C64.9621 148.827 65.4457 149.042 65.2845 149.311ZM23.5799 150.117C23.5799 150.278 23.365 150.547 23.0425 150.708C22.7738 150.869 22.5051 150.762 22.5051 150.493C22.5051 150.17 22.7738 149.902 23.0425 149.902C23.365 149.902 23.5799 150.009 23.5799 150.117ZM19.4417 152.965C19.0655 153.073 18.4206 153.073 18.0982 152.965C17.722 152.804 17.9907 152.696 18.7431 152.696C19.4955 152.696 19.7642 152.804 19.4417 152.965ZM48.8392 153.126C48.8392 153.395 48.5704 153.664 48.248 153.664C47.9793 153.664 47.8718 153.395 48.033 153.126C48.1942 152.804 48.463 152.589 48.6242 152.589C48.7317 152.589 48.8392 152.804 48.8392 153.126ZM19.1193 154.524C18.9581 154.685 18.4744 154.739 18.0982 154.577C17.6682 154.416 17.8294 154.255 18.4206 154.255C19.0118 154.201 19.3343 154.362 19.1193 154.524ZM40.7777 155.007C40.7777 155.276 37.8218 156.888 37.2844 156.888C37.1232 156.888 37.0157 156.512 37.0157 156.028C37.0157 155.491 37.3382 155.276 37.8218 155.437C38.2518 155.652 38.7355 155.545 38.8967 155.276C39.2192 154.739 40.7777 154.524 40.7777 155.007ZM56.9006 155.168C56.9006 155.383 56.4169 155.598 55.8795 155.598C55.2883 155.598 54.9659 155.383 55.0733 155.168C55.2346 154.954 55.7183 154.739 56.1482 154.739C56.5782 154.739 56.9006 154.954 56.9006 155.168ZM49.3766 155.491C49.3766 155.598 49.0004 155.813 48.5704 156.028C48.1405 156.19 47.7643 156.082 47.7643 155.813C47.7643 155.491 48.1405 155.276 48.5704 155.276C49.0004 155.276 49.3766 155.383 49.3766 155.491ZM50.9889 156.351C50.9889 156.62 50.7202 156.888 50.3977 156.888C50.129 156.888 50.0215 156.62 50.1827 156.351C50.344 156.028 50.6127 155.813 50.7739 155.813C50.8814 155.813 50.9889 156.028 50.9889 156.351ZM42.6587 156.888C42.4975 157.157 42.0138 157.264 41.5839 157.05C40.4553 156.673 40.5627 156.351 41.9063 156.351C42.4975 156.351 42.8737 156.566 42.6587 156.888ZM55.557 156.888C55.3958 157.157 54.9121 157.426 54.5897 157.426C54.2135 157.426 54.2672 157.211 54.7509 156.888C55.772 156.243 55.987 156.243 55.557 156.888ZM52.6012 159.79C52.225 160.167 51.9025 160.167 51.5263 159.79C51.2038 159.468 51.3651 159.253 52.0637 159.253C52.7624 159.253 52.9236 159.468 52.6012 159.79ZM63.726 163.982C63.5647 164.412 63.4035 164.251 63.4035 163.66C63.3498 163.069 63.511 162.746 63.6722 162.961C63.8335 163.122 63.8872 163.606 63.726 163.982ZM61.7375 164.95C61.7375 165.218 61.63 165.487 61.5225 165.487C61.3613 165.487 61.0926 165.218 60.9313 164.95C60.7701 164.627 60.8776 164.412 61.1463 164.412C61.4688 164.412 61.7375 164.627 61.7375 164.95ZM10.1442 168.604C10.1442 168.873 9.768 169.088 9.33805 169.088C8.90811 169.088 8.69314 168.873 8.85437 168.604C9.0156 168.389 9.33806 168.174 9.66052 168.174C9.92923 168.174 10.1442 168.389 10.1442 168.604ZM18.3131 172.366C17.9369 172.474 17.7757 172.796 17.9369 173.065C18.1519 173.334 17.8832 173.387 17.3995 173.226C16.7546 172.957 16.7008 172.689 17.1845 172.151C17.507 171.721 18.0444 171.56 18.3669 171.775C18.7968 172.044 18.7431 172.205 18.3131 172.366ZM9.60677 174.623C9.60677 174.892 9.49929 175.161 9.3918 175.161C9.23057 175.161 8.96185 174.892 8.80062 174.623C8.63939 174.301 8.74688 174.086 9.01559 174.086C9.33805 174.086 9.60677 174.301 9.60677 174.623ZM53.5148 175.483C53.3536 175.645 52.8699 175.698 52.4937 175.537C52.0637 175.376 52.225 175.215 52.8161 175.215C53.4073 175.161 53.7298 175.322 53.5148 175.483ZM9.06934 176.773C8.63939 177.042 8.04822 177.311 7.72576 177.311C7.45705 177.311 7.56453 177.042 7.99448 176.773C8.42442 176.504 9.06934 176.236 9.33805 176.236C9.66051 176.236 9.49928 176.504 9.06934 176.773ZM17.4532 181.933C17.507 182.416 17.4533 182.631 17.2383 182.47C17.0771 182.255 16.8621 181.718 16.8083 181.288C16.7546 180.804 16.8083 180.589 17.0233 180.75C17.1845 180.965 17.3995 181.503 17.4532 181.933ZM7.99448 182.9C7.99448 183.061 7.77951 183.33 7.45705 183.491C7.18833 183.652 6.91962 183.545 6.91962 183.276C6.91962 182.954 7.18833 182.685 7.45705 182.685C7.77951 182.685 7.99448 182.792 7.99448 182.9ZM16.3246 183.222C16.4859 183.491 16.3784 183.76 16.1097 183.76C15.7872 183.76 15.5185 183.491 15.5185 183.222C15.5185 182.9 15.626 182.685 15.7335 182.685C15.8947 182.685 16.1634 182.9 16.3246 183.222ZM6.54341 186.286C7.72576 186.877 7.99448 187.253 7.5108 187.414C7.08085 187.576 6.59717 187.414 6.48968 187.038C6.3822 186.716 5.95224 186.447 5.57604 186.447C5.1461 186.447 4.66241 186.178 4.50118 185.91C4.0175 185.157 4.55492 185.265 6.54341 186.286ZM11.649 186.823C11.1116 186.931 10.1442 186.931 9.49928 186.823C8.80062 186.716 9.23057 186.608 10.4129 186.608C11.5953 186.554 12.1327 186.662 11.649 186.823ZM2.99639 188.167C2.83516 188.597 2.67393 188.435 2.67393 187.844C2.62018 187.253 2.78141 186.931 2.94264 187.146C3.10387 187.307 3.15762 187.791 2.99639 188.167ZM15.411 191.66C14.7123 192.52 14.6049 192.52 14.2824 191.606C14.0674 191.069 14.2824 190.854 14.9811 190.908C15.7335 190.961 15.841 191.123 15.411 191.66ZM19.2805 191.284C19.2805 191.553 19.0655 191.821 18.7431 191.821C18.4744 191.821 18.2056 191.553 18.2056 191.284C18.2056 190.961 18.4744 190.746 18.7431 190.746C19.0655 190.746 19.2805 190.961 19.2805 191.284ZM16.3784 195.153C15.8947 196.013 15.7335 196.013 15.626 195.315C15.5185 194.885 15.196 194.67 14.8736 194.831C14.5511 195.046 14.4436 194.938 14.6586 194.616C14.8198 194.293 15.4648 194.078 16.0022 194.132C16.8083 194.186 16.9158 194.347 16.3784 195.153ZM14.9811 199.614C14.9811 200.098 14.6586 200.259 14.1749 200.098C13.745 199.883 13.53 199.56 13.6912 199.292C14.1212 198.539 14.9811 198.754 14.9811 199.614ZM6.91962 211.491C6.91962 211.599 6.54342 211.706 6.11347 211.706C5.68353 211.706 5.30733 211.491 5.30733 211.169C5.30733 210.9 5.68353 210.793 6.11347 210.954C6.54342 211.169 6.91962 211.384 6.91962 211.491ZM5.57604 225.088C5.41481 225.411 4.82364 225.572 4.23247 225.518C3.69504 225.464 3.37258 225.249 3.48007 225.034C3.6413 224.819 4.23247 224.604 4.82365 224.604C5.41482 224.604 5.79102 224.819 5.57604 225.088ZM4.98487 227.023C4.7699 227.453 4.44744 227.668 4.17872 227.507C3.58755 227.184 4.07124 226.217 4.7699 226.217C5.03861 226.217 5.1461 226.593 4.98487 227.023ZM4.23247 228.581C4.23247 228.743 4.0175 229.011 3.69504 229.173C3.42632 229.334 3.15761 229.226 3.15761 228.958C3.15761 228.635 3.42632 228.366 3.69504 228.366C4.0175 228.366 4.23247 228.474 4.23247 228.581ZM9.60677 230.247C9.23057 230.677 8.6394 231.054 8.31694 231.054C7.99448 231.054 8.20945 230.677 8.74688 230.247C10.0905 229.226 10.4667 229.226 9.60677 230.247Z" fill="#EE404D"/> </svg>